<svg width="130" height="21" xmlns="http://www.w3.org/2000/svg">
  <g fill="#00008F" fill-rule="evenodd">
    <path d="M36 3h3v16h-3zM42 7.3h2.3l.2 1.6c1.1-1 2.3-1.9 3.9-1.9 2.5 0 3.6 1.7 3.6 4.7V19h-2.7v-7c0-2-.6-2.6-1.9-2.6-1 0-1.7.5-2.7 1.4V19H42V7.3zM54.3 15.7c1 .8 2 1.3 3.2 1.3 1.3 0 1.9-.6 1.9-1.4 0-1-1.3-1.4-2.5-1.8-1.6-.6-3.3-1.5-3.3-3.4 0-2 1.6-3.4 4.3-3.4 1.4 0 2.8.5 3.9 1.4L60.5 10c-.8-.6-1.7-1-2.6-1-1.1 0-1.7.6-1.7 1.3 0 .9 1.2 1.2 2.4 1.7 1.6.6 3.4 1.3 3.4 3.5 0 2-1.6 3.5-4.6 3.5-1.6 0-3.1-.6-4.4-1.6l1.3-1.7zM64 7h2.8v7c0 2 .5 2.6 1.8 2.6 1 0 1.7-.5 2.6-1.6V7H74v11.7h-2.3l-.2-1.7c-1 1.2-2.2 2-3.9 2-2.5 0-3.6-1.7-3.6-4.7V7zM77 7.3h2.2l.2 2c.9-1.5 2.1-2.3 3.3-2.3.4 0 .9 0 1.3.2l-.4 2.4-1.2-.2c-1 0-2 .7-2.7 2.4V19H77V7.3z"/>
    <path d="M91.4 11.4c0-1.2-.5-2.2-2-2.2a6 6 0 0 0-3 1l-1-1.7A8.2 8.2 0 0 1 90 7c2.8 0 4.1 1.7 4.1 5v6.7h-2l-.3-1.2c-1 .8-2.1 1.5-3.4 1.5-2 0-3.3-1.4-3.3-3.4 0-2.4 2-3.7 6.4-4.2zm-2.3 5.5c.8 0 1.5-.5 2.3-1.3v-2.5c-3 .4-3.9 1.2-3.9 2.3 0 1 .6 1.5 1.6 1.5z" fill-rule="nonzero"/>
    <path d="M97 7.3h2.3l.2 1.6c1.1-1 2.3-1.9 3.9-1.9 2.5 0 3.6 1.7 3.6 4.7V19h-2.7v-7c0-2-.6-2.6-1.9-2.6-1 0-1.7.5-2.7 1.4V19H97V7.3zM114.6 7c1.2 0 2.3.5 3.2 1.3l-1.2 1.7c-.5-.5-1.2-.8-1.9-.8-1.8 0-3 1.5-3 3.8s1.2 3.8 3 3.8c.8 0 1.6-.5 2.2-1l1.1 1.7c-1 1-2.3 1.5-3.6 1.5-3 0-5.4-2.2-5.4-6s2.6-6 5.6-6z"/>
    <path d="M125.3 7c3 0 4.7 2.2 4.7 5.4l-.1 1.3h-7.3c.2 2 1.6 3.2 3.4 3.2 1 0 1.9-.3 2.6-.8l1 1.7a7.2 7.2 0 0 1-4 1.2c-3.1 0-5.6-2.2-5.6-6 0-3.7 2.6-6 5.3-6zm2.4 5c0-1.8-.8-3-2.4-3-1.3 0-2.5 1-2.7 3h5z" fill-rule="nonzero"/>
    <path d="M0 18.4L2.5 21 8 15.3l5.5 5.7 2.5-2.6L8 10z"/>
    <path d="M2.5 0L0 2.6 8 11l8-8.4L13.5 0 8 5.7zM17 0v11h11V7.5h-7.5V0H17z"/>
  </g>
</svg>
