<svg width="55" height="55" data-name="AXA Logo RGB" xmlns="http://www.w3.org/2000/svg" viewBox="0 0 283.5 283.5">
  <path fill="#00008f" d="M0 0h283.5v283.5H0z"/>
  <path fill="#ff1721" d="M175.7 140L283.5 0h-16L159.4 140h16.3z"/>
  <path d="M216.6 202.5c5 13.8 15.1 49.8 19.2 52.6H209a44.6 44.6 0 0 0-1.2-9.4L197 210.5h-42.5l-6.7 9.4 8.5 26.4c1 2.2 4.7 8.8 4.7 8.8h-25.6l-.9-5.4c-.2-1.3-2.4-8.4-2.4-8.4s-5.8 6.4-7.4 9.4l-2.3 4.4h-20l-1-5.4c-.2-1.3-2.6-9-2.6-9s-5.6 6.9-7.2 9.8l-2.3 4.6H69.5s5.6-5.3 7.6-7.6c3.3-3.9 15.6-20 15.6-20l-5-17H45.6s-24 31.5-25 32.5-8 11-8.1 12.1H0v-8a6 6 0 0 1 .5-.4c.4-.3 18.2-22.4 34.6-44.2 14.7-19 28.5-37.6 29.7-39.3 3-4.3 7.2-13.5 7.2-13.5h21.8s.6 8.5 1.3 10.5c.5 1.8 13.8 45.4 14.1 45.8l7.4-9.3L104 158s-3-7.3-3.9-8.4h25.5a22.2 22.2 0 0 0 .8 7c1 3.1 6.5 22.8 6.5 22.8s17.3-21.8 18.4-23.3a14.1 14.1 0 0 0 2.1-6.5h21.2s-3.9 2.8-10.7 11.4l-24.7 31.4 3 10 .4 1.6 1.3-1.6c5.8-7.4 32-41.8 33.7-44.8 1.3-2.3 3.1-5 4.3-8h20.6s.5 6.2 1.1 7.9zm-31.5-32.7c-3 6.6-20.9 28.3-20.9 28.3h28.3s-5.5-16.9-6.4-20.7a30.2 30.2 0 0 1-.6-7.4c0-.3 0-.9-.4-.2zm-108.8 0c-3 6.6-20.9 28.3-20.9 28.3h28.3s-5.4-16.9-6.4-20.7a30.2 30.2 0 0 1-.6-7.4c0-.3 0-.9-.4-.2zm42.7 66l7.8-10.7c-.8-.7-5.1-14-5.1-14l-7.6 9.7z" fill="#fff"/>
</svg>
